<?xml version="1.0" encoding="iso-8859-1"?>
<!-- Uploaded to: SVG Repo, www.svgrepo.com, Generator: SVG Repo Mixer Tools -->
<svg fill="#000000" height="800px" width="800px" version="1.1" id="Layer_1" xmlns="http://www.w3.org/2000/svg" xmlns:xlink="http://www.w3.org/1999/xlink" 
	 viewBox="0 0 512 512" xml:space="preserve">
<g>
	<g>
		<path d="M256,0c-9.22,0-16.696,7.475-16.696,16.696v478.609c0,9.22,7.475,16.696,16.696,16.696c9.22,0,16.696-7.475,16.696-16.696
			V16.696C272.696,7.475,265.22,0,256,0z"/>
	</g>
</g>
<g>
	<g>
		<path d="M105.739,44.522c-36.824,0-66.783,29.959-66.783,66.783c0,36.824,29.959,66.783,66.783,66.783
			s66.783-29.959,66.783-66.783C172.522,74.48,142.563,44.522,105.739,44.522z M105.739,144.696
			c-18.412,0-33.391-14.979-33.391-33.391c0-18.412,14.979-33.391,33.391-33.391s33.391,14.979,33.391,33.391
			C139.13,129.716,124.151,144.696,105.739,144.696z"/>
	</g>
</g>
<g>
	<g>
		<path d="M406.261,44.522c-36.824,0-66.783,29.959-66.783,66.783c0,36.824,29.959,66.783,66.783,66.783
			s66.783-29.959,66.783-66.783C473.043,74.48,443.085,44.522,406.261,44.522z M406.261,144.696
			c-18.412,0-33.391-14.979-33.391-33.391c0-18.412,14.979-33.391,33.391-33.391c18.412,0,33.391,14.979,33.391,33.391
			C439.652,129.716,424.673,144.696,406.261,144.696z"/>
	</g>
</g>
<g>
	<g>
		<path d="M189.217,211.478H22.261c-11.645,0-19.723,11.651-15.633,22.558l49.024,130.73v63.755
			c0,27.618,22.469,50.087,50.087,50.087c27.618,0,50.087-22.469,50.087-50.087v-63.755l49.024-130.73
			C208.939,223.133,200.865,211.478,189.217,211.478z M123.498,355.877c-0.702,1.874-1.063,3.86-1.063,5.862v66.783
			c0,9.206-7.49,16.696-16.696,16.696s-16.696-7.49-16.696-16.696v-66.783c0-2.002-0.361-3.988-1.063-5.862L46.353,244.87h118.773
			L123.498,355.877z"/>
	</g>
</g>
<g>
	<g>
		<path d="M505.372,355.877l-50.087-133.565c-2.443-6.516-8.673-10.833-15.633-10.833H372.87c-6.96,0-13.19,4.318-15.633,10.833
			L307.15,355.877c-4.089,10.903,3.985,22.558,15.633,22.558h33.391v50.087c0,27.618,22.469,50.087,50.087,50.087
			s50.087-22.469,50.087-50.087v-50.087h33.391C501.384,378.435,509.462,366.783,505.372,355.877z M439.652,345.043
			c-9.22,0-16.696,7.475-16.696,16.696v66.783c0,9.206-7.49,16.696-16.696,16.696s-16.696-7.49-16.696-16.696v-66.783
			c0-9.22-7.475-16.696-16.696-16.696h-25.995L384.44,244.87h43.642l37.565,100.174H439.652z"/>
	</g>
</g>
</svg>