<?xml version="1.0" encoding="iso-8859-1"?>
<!-- Uploaded to: SVG Repo, www.svgrepo.com, Generator: SVG Repo Mixer Tools -->
<svg fill="#000000" height="800px" width="800px" version="1.1" id="Layer_1" xmlns="http://www.w3.org/2000/svg" xmlns:xlink="http://www.w3.org/1999/xlink" 
	 viewBox="0 0 511.998 511.998" xml:space="preserve">
<g>
	<g>
		<path d="M482.262,393.702c-15.201,0-26.529-7.929-33.356-14.58c-6.525-6.357-16.923-6.356-23.447,0
			c-5.698,5.552-14.543,11.975-26.149,13.953v-41.985c13.363-1.288,26.33-6.12,37.872-14.09
			c13.609,9.396,29.197,14.452,45.079,14.452c9.278,0,16.799-7.521,16.799-16.799c0-9.278-7.521-16.799-16.799-16.799
			c-15.201,0-26.529-7.929-33.356-14.58c-6.525-6.357-16.923-6.356-23.447,0c-5.698,5.552-14.543,11.975-26.149,13.953V207.84
			c0-9.277-7.521-16.799-16.799-16.799h-63.187L305.166,72.685c2.656-2.223,4.975-4.903,6.836-7.993
			c5.761-9.563,6.083-21.161,0.865-31.025C301.881,12.901,280.473,0,256.995,0c-23.478,0-44.887,12.901-55.872,33.666
			c-5.218,9.864-4.895,21.462,0.865,31.025c1.86,3.09,4.18,5.77,6.836,7.993l-14.157,118.359H33.092
			c-9.278,0-16.799,7.521-16.799,16.799s7.521,16.799,16.799,16.799h30.472h302.147v17.919H96.069H29.732
			c-9.278,0-16.799,7.521-16.799,16.799c0,9.277,7.521,16.799,16.799,16.799h127.281h208.698v108.768
			c-2.68-1.899-5.018-3.907-6.975-5.815c-5.414-5.278-13.499-6.161-19.823-2.676c-1.296,0.713-2.522,1.597-3.632,2.679
			c-6.823,6.654-18.146,14.585-33.35,14.585c-15.206,0-26.537-7.932-33.365-14.588c-6.524-6.359-16.93-6.359-23.454,0.002
			c-6.824,6.654-18.147,14.586-33.35,14.586c-15.202,0-26.529-7.929-33.356-14.579c-6.522-6.357-16.923-6.357-23.447,0
			c-6.827,6.651-18.155,14.58-33.356,14.58c-15.206,0-26.537-7.932-33.365-14.588c-6.524-6.359-16.93-6.359-23.454,0.002
			c-6.824,6.654-18.147,14.586-33.35,14.586c-9.278,0-16.799,7.521-16.799,16.799c0,9.277,7.521,16.799,16.799,16.799
			c15.885,0,31.475-5.059,45.082-14.458c13.611,9.401,29.202,14.458,45.088,14.458c15.882,0,31.47-5.055,45.079-14.452
			c13.608,9.396,29.195,14.452,45.079,14.452c15.885,0,31.475-5.059,45.082-14.458c13.611,9.401,29.202,14.458,45.088,14.458
			c15.886,0,31.475-5.058,45.082-14.457c13.611,9.4,29.202,14.457,45.088,14.457c15.884,0,31.471-5.055,45.079-14.452
			c13.609,9.396,29.197,14.452,45.079,14.452c9.278,0,16.799-7.521,16.799-16.799C499.062,401.222,491.539,393.702,482.262,393.702z
			 M256.995,33.792c9.817,0.001,18.865,4.941,24.355,12.781h-48.71C238.129,38.733,247.176,33.792,256.995,33.792z M230.78,172.005
			l11.008-91.834h30.413l11.008,91.834H230.78z"/>
	</g>
</g>
<g>
	<g>
		<path d="M482.262,478.402c-15.201,0-26.529-7.929-33.356-14.58c-6.525-6.357-16.923-6.356-23.447,0
			c-6.827,6.65-18.154,14.579-33.356,14.579c-15.206,0-26.537-7.932-33.365-14.588c-6.525-6.359-16.929-6.36-23.454,0.003
			c-6.823,6.654-18.147,14.585-33.35,14.585c-15.206,0-26.537-7.932-33.365-14.588c-6.526-6.359-16.93-6.359-23.454,0.002
			c-6.824,6.654-18.148,14.585-33.35,14.585c-15.202,0-26.529-7.929-33.356-14.579c-6.523-6.357-16.923-6.357-23.447,0
			c-6.827,6.651-18.155,14.58-33.356,14.58c-15.206,0-26.537-7.932-33.365-14.588c-6.526-6.359-16.93-6.359-23.454,0.002
			c-6.824,6.654-18.148,14.585-33.35,14.585c-9.278,0-16.799,7.521-16.799,16.799s7.521,16.799,16.799,16.799
			c15.885,0,31.475-5.059,45.082-14.457c13.611,9.4,29.202,14.457,45.088,14.457c15.882,0,31.47-5.055,45.079-14.452
			c13.608,9.396,29.195,14.452,45.079,14.452c15.885,0,31.475-5.059,45.082-14.457c13.61,9.4,29.202,14.457,45.088,14.457
			s31.475-5.058,45.082-14.457c13.611,9.4,29.202,14.457,45.088,14.457c15.884,0,31.471-5.055,45.079-14.452
			c13.609,9.396,29.197,14.452,45.079,14.452c9.278,0,16.799-7.521,16.799-16.799S491.539,478.402,482.262,478.402z"/>
	</g>
</g>
</svg>